
        <svg xmlns="http://www.w3.org/2000/svg" xmlns:xlink="http://www.w3.org/1999/xlink" version="1.1" width="3176.470588235294" 
        height="1423.1118156098412" viewBox="0 0 3176.470588235294 1423.1118156098412">
			
			<g transform="scale(8.823529411764707) translate(10, 10)">
				<defs id="SvgjsDefs22449"></defs><g id="SvgjsG22450" featureKey="symbolFeature-0" transform="matrix(1.3333333333333333,0,0,1.3333333333333333,-16.666666666666664,4.333333333333336)" fill="#959398"><path xmlns="http://www.w3.org/2000/svg" fill="none" stroke="#959398" stroke-linecap="round" stroke-linejoin="round" stroke-miterlimit="10" d="M20.807,79.201  l66.375-66.379L20.807,79.201z"></path><path xmlns="http://www.w3.org/2000/svg" fill="none" stroke="#959398" stroke-linecap="round" stroke-linejoin="round" stroke-miterlimit="10" d="M33.917,79.201  h36.271H33.917z"></path><path xmlns="http://www.w3.org/2000/svg" fill="none" stroke="#959398" stroke-linecap="round" stroke-linejoin="round" stroke-miterlimit="10" d="M73.276,75.055  H32.054H73.276z"></path><path xmlns="http://www.w3.org/2000/svg" fill="none" stroke="#959398" stroke-linecap="round" stroke-linejoin="round" stroke-miterlimit="10" d="M37.094,83.354  l29.341-0.004L37.094,83.354z"></path><path xmlns="http://www.w3.org/2000/svg" fill="none" stroke="#959398" stroke-linecap="round" stroke-linejoin="round" stroke-miterlimit="10" d="M43.04,87.5h17.448  H43.04z"></path><path xmlns="http://www.w3.org/2000/svg" fill="none" stroke="#959398" stroke-linecap="round" stroke-linejoin="round" stroke-miterlimit="10" d="M29.101,70.906  h46.728H29.101z"></path><polygon xmlns="http://www.w3.org/2000/svg" fill="none" stroke="#959398" stroke-linecap="round" stroke-linejoin="round" stroke-miterlimit="10" points="  33.25,66.752 33.252,66.754 77.937,66.758 "></polygon><polygon xmlns="http://www.w3.org/2000/svg" fill="none" stroke="#959398" stroke-linecap="round" stroke-linejoin="round" stroke-miterlimit="10" points="37.4,62.604   37.403,62.607 79.638,62.607 "></polygon><polygon xmlns="http://www.w3.org/2000/svg" fill="none" stroke="#959398" stroke-linecap="round" stroke-linejoin="round" stroke-miterlimit="10" points="  41.548,58.453 41.552,58.457 81.179,58.459 "></polygon><polygon xmlns="http://www.w3.org/2000/svg" fill="none" stroke="#959398" stroke-linecap="round" stroke-linejoin="round" stroke-miterlimit="10" points="  45.699,54.305 45.699,54.307 82.545,54.307 "></polygon><polygon xmlns="http://www.w3.org/2000/svg" fill="none" stroke="#959398" stroke-linecap="round" stroke-linejoin="round" stroke-miterlimit="10" points="  49.846,50.157 49.846,50.16 83.695,50.16 "></polygon><polygon xmlns="http://www.w3.org/2000/svg" fill="none" stroke="#959398" stroke-linecap="round" stroke-linejoin="round" stroke-miterlimit="10" points="  53.99,46.008 53.998,46.01 84.699,46.012 "></polygon><polygon xmlns="http://www.w3.org/2000/svg" fill="none" stroke="#959398" stroke-linecap="round" stroke-linejoin="round" stroke-miterlimit="10" points="  58.143,41.861 58.146,41.862 85.557,41.864 "></polygon><polygon xmlns="http://www.w3.org/2000/svg" fill="none" stroke="#959398" stroke-linecap="round" stroke-linejoin="round" stroke-miterlimit="10" points="  62.29,37.711 62.292,37.712 86.273,37.714 "></polygon><polygon xmlns="http://www.w3.org/2000/svg" fill="none" stroke="#959398" stroke-linecap="round" stroke-linejoin="round" stroke-miterlimit="10" points="  66.44,33.561 66.44,33.565 86.783,33.565 "></polygon><polygon xmlns="http://www.w3.org/2000/svg" fill="none" stroke="#959398" stroke-linecap="round" stroke-linejoin="round" stroke-miterlimit="10" points="  70.589,29.414 70.593,29.417 87.158,29.417 "></polygon><polygon xmlns="http://www.w3.org/2000/svg" fill="none" stroke="#959398" stroke-linecap="round" stroke-linejoin="round" stroke-miterlimit="10" points="  74.735,25.264 74.739,25.269 87.396,25.269 "></polygon><polygon xmlns="http://www.w3.org/2000/svg" fill="none" stroke="#959398" stroke-linecap="round" stroke-linejoin="round" stroke-miterlimit="10" points="  78.884,21.116 78.888,21.118 87.5,21.118 "></polygon><polygon xmlns="http://www.w3.org/2000/svg" fill="none" stroke="#959398" stroke-linecap="round" stroke-linejoin="round" stroke-miterlimit="10" points="  83.031,16.966 83.035,16.97 87.42,16.97 "></polygon><path xmlns="http://www.w3.org/2000/svg" fill="none" stroke="#959398" stroke-linecap="round" stroke-linejoin="round" stroke-miterlimit="10" d="M20.799,66.086  l0.004-36.275L20.799,66.086z"></path><path xmlns="http://www.w3.org/2000/svg" fill="none" stroke="#959398" stroke-linecap="round" stroke-linejoin="round" stroke-miterlimit="10" d="M24.95,26.725v41.224  V26.725z"></path><path xmlns="http://www.w3.org/2000/svg" fill="none" stroke="#959398" stroke-linecap="round" stroke-linejoin="round" stroke-miterlimit="10" d="M16.651,62.91  l0.004-29.345L16.651,62.91z"></path><path xmlns="http://www.w3.org/2000/svg" fill="none" stroke="#959398" stroke-linecap="round" stroke-linejoin="round" stroke-miterlimit="10" d="M12.5,56.963  l0.004-17.45L12.5,56.963z"></path><path xmlns="http://www.w3.org/2000/svg" fill="none" stroke="#959398" stroke-linecap="round" stroke-linejoin="round" stroke-miterlimit="10" d="M29.098,70.902  V24.173V70.902z"></path><polygon xmlns="http://www.w3.org/2000/svg" fill="none" stroke="#959398" stroke-linecap="round" stroke-linejoin="round" stroke-miterlimit="10" points="  33.25,66.752 33.246,66.748 33.246,22.065 "></polygon><polygon xmlns="http://www.w3.org/2000/svg" fill="none" stroke="#959398" stroke-linecap="round" stroke-linejoin="round" stroke-miterlimit="10" points="37.4,62.604   37.396,62.6 37.394,20.36 "></polygon><polygon xmlns="http://www.w3.org/2000/svg" fill="none" stroke="#959398" stroke-linecap="round" stroke-linejoin="round" stroke-miterlimit="10" points="  41.548,58.453 41.545,58.451 41.545,18.824 "></polygon><polygon xmlns="http://www.w3.org/2000/svg" fill="none" stroke="#959398" stroke-linecap="round" stroke-linejoin="round" stroke-miterlimit="10" points="  45.699,54.305 45.696,54.301 45.692,17.456 "></polygon><polygon xmlns="http://www.w3.org/2000/svg" fill="none" stroke="#959398" stroke-linecap="round" stroke-linejoin="round" stroke-miterlimit="10" points="  49.846,50.157 49.843,50.153 49.839,16.305 "></polygon><polygon xmlns="http://www.w3.org/2000/svg" fill="none" stroke="#959398" stroke-linecap="round" stroke-linejoin="round" stroke-miterlimit="10" points="  53.99,46.008 53.99,46.005 53.988,15.302 "></polygon><polygon xmlns="http://www.w3.org/2000/svg" fill="none" stroke="#959398" stroke-linecap="round" stroke-linejoin="round" stroke-miterlimit="10" points="  58.143,41.861 58.139,41.857 58.139,14.445 "></polygon><polygon xmlns="http://www.w3.org/2000/svg" fill="none" stroke="#959398" stroke-linecap="round" stroke-linejoin="round" stroke-miterlimit="10" points="  62.29,37.711 62.29,37.706 62.286,13.728 "></polygon><polygon xmlns="http://www.w3.org/2000/svg" fill="none" stroke="#959398" stroke-linecap="round" stroke-linejoin="round" stroke-miterlimit="10" points="  66.44,33.561 66.435,33.558 66.435,13.218 "></polygon><polygon xmlns="http://www.w3.org/2000/svg" fill="none" stroke="#959398" stroke-linecap="round" stroke-linejoin="round" stroke-miterlimit="10" points="  70.589,29.414 70.585,29.41 70.585,12.842 "></polygon><polygon xmlns="http://www.w3.org/2000/svg" fill="none" stroke="#959398" stroke-linecap="round" stroke-linejoin="round" stroke-miterlimit="10" points="  74.735,25.264 74.733,25.262 74.733,12.602 "></polygon><polygon xmlns="http://www.w3.org/2000/svg" fill="none" stroke="#959398" stroke-linecap="round" stroke-linejoin="round" stroke-miterlimit="10" points="  78.884,21.116 78.884,21.115 78.884,12.5 "></polygon><polygon xmlns="http://www.w3.org/2000/svg" fill="none" stroke="#959398" stroke-linecap="round" stroke-linejoin="round" stroke-miterlimit="10" points="  83.031,16.966 83.027,16.964 83.027,12.58 "></polygon></g><g id="SvgjsG22451" featureKey="nameFeature-0" transform="matrix(3.7181393366135223,0,0,3.7181393366135223,106.41875086793814,-42.33707003940069)" fill="#a10425"><path d="M22.93 11.777000000000001 l5.8398 0 l0 28.223 l-6.7773 0 l-12.5 -20.176 l0 20.176 l-5.8398 0 l0 -28.223 l6.6992 0 l12.578 20.059 l0 -20.059 z M49.482078125 40.39063 c-8.3008 0 -14.434 -5.6445 -14.434 -14.512 s6.1328 -14.492 14.434 -14.492 c6.2891 0 11.328 3.2227 13.34 8.5742 l-5.4688 1.9922 c-1.25 -3.2813 -4.2383 -5.1758 -7.8711 -5.1758 c-4.8633 0 -8.5938 3.3984 -8.5938 9.1016 s3.7305 9.1211 8.5938 9.1211 c3.6328 0 6.6211 -1.9141 7.8711 -5.1953 l5.4688 1.9922 c-2.0117 5.3516 -7.0508 8.5938 -13.34 8.5938 z"></path></g><g id="SvgjsG22452" featureKey="sloganFeature-0" transform="matrix(1.6057033187726337,0,0,1.6057033187726337,119.6080476692059,108.85832929250992)" fill="#a10425"><path d="M3.9746 20.19531 c-1.0938 0 -2.4219 -0.29297 -3.7305 -0.97656 l1.2402 -2.4121 c0.69336 0.48828 1.3672 0.75195 2.1387 0.75195 c1.1523 0 1.7383 -0.69336 1.7383 -2.3438 l0 -9.3262 l2.9297 0 l0 9.873 c0 2.8906 -1.7578 4.4336 -4.3164 4.4336 z M17.968778125 20.19531 c-4.1504 0 -7.2168 -2.832 -7.2168 -7.2559 c0 -4.4336 3.0664 -7.2461 7.2168 -7.2461 c4.1406 0 7.207 2.8125 7.207 7.2461 c0 4.4238 -3.0664 7.2559 -7.207 7.2559 z M17.968778125 17.5098 c2.4316 0 4.2969 -1.709 4.2969 -4.5703 c0 -2.8516 -1.8652 -4.5508 -4.2969 -4.5508 s-4.2969 1.6992 -4.2969 4.5508 c0 2.8613 1.8652 4.5703 4.2969 4.5703 z M35.449221875 12.5488 c1.5918 0.43945 2.6563 1.4844 2.6563 3.4961 c0 2.3828 -1.4453 3.9551 -4.4238 3.9551 l-5.8105 0 l0 -14.111 l4.5703 0 c3.0469 0 4.6484 1.4648 4.6484 3.8672 c0 1.2402 -0.53711 2.2559 -1.6406 2.793 z M32.470721875 8.32 l-1.7773 0 l0 3.3203 l1.9043 0 c1.25 0 1.7969 -0.74219 1.7969 -1.6992 c0 -0.9375 -0.61523 -1.6211 -1.9238 -1.6211 z M33.134721875 17.4902 c1.582 0 2.1289 -0.84961 2.1289 -1.7676 c0 -0.9375 -0.53711 -1.8262 -2.1875 -1.8262 l-2.3828 0 l0 3.5938 l2.4414 0 z M50.59573125 20.19531 c-3.0273 0 -5.3906 -1.4551 -5.8203 -4.1016 l3.0273 -0.69336 c0.19531 1.582 1.3574 2.4023 2.9102 2.4023 c1.1914 0 2.1387 -0.52734 2.1289 -1.7188 c-0.0097656 -1.3281 -1.5723 -1.748 -3.291 -2.2754 c-2.0703 -0.64453 -4.2871 -1.4063 -4.2871 -4.0039 c0 -2.627 2.1484 -4.1113 4.9805 -4.1113 c2.4805 0 4.9805 1.0059 5.5469 3.7109 l-2.832 0.70313 c-0.26367 -1.4063 -1.2109 -2.0215 -2.5391 -2.0215 c-1.1816 0 -2.1875 0.48828 -2.1875 1.6504 c0 1.084 1.3867 1.4453 2.9883 1.9238 c2.1289 0.64453 4.6484 1.4648 4.6484 4.2773 c0 2.998 -2.5098 4.2578 -5.2734 4.2578 z M66.758046875 8.467 l-5.2344 0 l0 3.2031 l4.6387 0 l0 2.5488 l-4.6387 0 l0 3.1934 l5.2344 0 l0 2.5879 l-8.1836 0 l0 -14.111 l8.1836 0 l0 2.5781 z M79.21921875 20 l-1.0254 -2.9102 l-5.9277 0 l-1.0254 2.9102 l-2.998 0 l5.1953 -14.111 l3.584 0 l5.1953 14.111 l-2.998 0 z M73.12501875 14.6387 l4.209 0 l-2.0996 -5.9863 z M90.585965625 20.19531 c-4.1504 0 -7.2168 -2.8223 -7.2168 -7.2559 s3.0664 -7.2461 7.2168 -7.2461 c3.1445 0 5.6641 1.6113 6.6699 4.2871 l-2.7344 0.99609 c-0.625 -1.6406 -2.1191 -2.5879 -3.9355 -2.5879 c-2.4316 0 -4.2969 1.6992 -4.2969 4.5508 s1.8652 4.5605 4.2969 4.5605 c1.8164 0 3.3105 -0.95703 3.9355 -2.5977 l2.7344 0.99609 c-1.0059 2.6758 -3.5254 4.2969 -6.6699 4.2969 z M108.55503125 5.888999999999999 l2.9297 0 l0 14.111 l-2.9297 0 l0 -5.8008 l-5.9668 0 l0 5.8008 l-2.9297 0 l0 -14.111 l2.9297 0 l0 5.7617 l5.9668 0 l0 -5.7617 z M123.320546875 8.467 l-5.2344 0 l0 3.2031 l4.6387 0 l0 2.5488 l-4.6387 0 l0 3.1934 l5.2344 0 l0 2.5879 l-8.1836 0 l0 -14.111 l8.1836 0 l0 2.5781 z M133.78901875 20 l-3.6719 -6.2109 l-0.84961 0 l0 6.2109 l-2.9297 0 l0 -14.111 l5.1172 0 c3.1934 0 4.541 1.8848 4.541 4.2188 c0 1.8945 -1.0742 3.125 -2.9883 3.5352 l4.248 6.3574 l-3.4668 0 z M129.26761875 8.32 l0 3.3691 l1.7285 0 c1.5625 0 2.1973 -0.66406 2.1973 -1.6797 c0 -1.0059 -0.63477 -1.6895 -2.1973 -1.6895 l-1.7285 0 z"></path></g>
			</g>
		</svg>
	